<svg xmlns="http://www.w3.org/2000/svg" viewBox="0 0 128 128"><path fill="#7611a6" d="M50.42 78.27a26.21 26.21 0 0 0 8.42 16.16l32.27 32.32a16.91 16.91 0 0 1-23.94 0L18.04 77.6a16.91 16.91 0 0 1 0-23.94l16.13-16.16Z"/><path fill="#bc52ee" d="m74.47 31.85-9 31.43-9-31.43L66.9.96a1.34 1.34 0 0 1 2.6.04Zm9.3 32.28a26.21 26.21 0 0 1-8.42 16.16l-9.88 9.88-9.88-9.88a26.21 26.21 0 0 1 0-32.32l8.95-8.94a1.34 1.34 0 0 1 1.86 0l8.95 8.94a26.21 26.21 0 0 1 8.42 16.16Z"/><path fill="#7611a6" d="m107.98 53.66 16.13 16.16a16.91 16.91 0 0 1 0 23.94l-49.13 49.15a16.91 16.91 0 0 1-23.94 0l32.27-32.32a26.21 26.21 0 0 0 8.42-16.16Z"/></svg>
